REM DIRINDEX 1\2,1\3,1\4,1\5
REM DIRNAME cjc004,folder01,folder02,folder03,folder04
TITLE ""
FILE "1Q_t_1871-1880.mp3" MP3
  TRACK 01 AUDIO
    TITLE "3:cjc004_6521"
    INDEX 01 00:00:00
  TRACK 02 AUDIO
    TITLE "0:"
    INDEX 01 00:01:09
  TRACK 03 AUDIO
    TITLE "4:cjc004_6522"
    INDEX 01 00:01:36
  TRACK 04 AUDIO
    TITLE "0:"
    INDEX 01 00:02:63
  TRACK 05 AUDIO
    TITLE "5:cjc004_6523"
    INDEX 01 00:03:14
  TRACK 06 AUDIO
    TITLE "0:"
    INDEX 01 00:06:30
  TRACK 07 AUDIO
    TITLE "3:cjc004_6524"
    INDEX 01 00:07:09
  TRACK 08 AUDIO
    TITLE "0:"
    INDEX 01 00:08:11
  TRACK 09 AUDIO
    TITLE "4:cjc004_6525"
    INDEX 01 00:08:40
  TRACK 10 AUDIO
    TITLE "0:"
    INDEX 01 00:10:39
  TRACK 11 AUDIO
    TITLE "5:cjc004_6526"
    INDEX 01 00:10:65
  TRACK 12 AUDIO
    TITLE "0:"
    INDEX 01 00:15:27
  TRACK 13 AUDIO
    TITLE "3:cjc004_6527"
    INDEX 01 00:15:74
  TRACK 14 AUDIO
    TITLE "0:"
    INDEX 01 00:17:51
  TRACK 15 AUDIO
    TITLE "4:cjc004_6528"
    INDEX 01 00:18:05
  TRACK 16 AUDIO
    TITLE "0:"
    INDEX 01 00:19:03
  TRACK 17 AUDIO
    TITLE "5:cjc004_6529"
    INDEX 01 00:19:36
  TRACK 18 AUDIO
    TITLE "0:"
    INDEX 01 00:23:24
  TRACK 19 AUDIO
    TITLE "3:cjc004_6530"
    INDEX 01 00:24:08
  TRACK 20 AUDIO
    TITLE "0:"
    INDEX 01 00:25:11
  TRACK 21 AUDIO
    TITLE "4:cjc004_6531"
    INDEX 01 00:25:37
  TRACK 22 AUDIO
    TITLE "0:"
    INDEX 01 00:26:54
  TRACK 23 AUDIO
    TITLE "5:cjc004_6532"
    INDEX 01 00:27:00
  TRACK 24 AUDIO
    TITLE "0:"
    INDEX 01 00:31:41
  TRACK 25 AUDIO
    TITLE "3:cjc004_6533"
    INDEX 01 00:32:25
  TRACK 26 AUDIO
    TITLE "0:"
    INDEX 01 00:33:24
  TRACK 27 AUDIO
    TITLE "4:cjc004_6534"
    INDEX 01 00:33:46
  TRACK 28 AUDIO
    TITLE "0:"
    INDEX 01 00:34:42
  TRACK 29 AUDIO
    TITLE "5:cjc004_6535"
    INDEX 01 00:34:67
  TRACK 30 AUDIO
    TITLE "0:"
    INDEX 01 00:39:56
  TRACK 31 AUDIO
    TITLE "3:cjc004_6536"
    INDEX 01 00:40:34
  TRACK 32 AUDIO
    TITLE "0:"
    INDEX 01 00:41:45
  TRACK 33 AUDIO
    TITLE "4:cjc004_6537"
    INDEX 01 00:41:71
  TRACK 34 AUDIO
    TITLE "0:"
    INDEX 01 00:43:46
  TRACK 35 AUDIO
    TITLE "5:cjc004_6538"
    INDEX 01 00:43:70
  TRACK 36 AUDIO
    TITLE "0:"
    INDEX 01 00:48:42
  TRACK 37 AUDIO
    TITLE "3:cjc004_6539"
    INDEX 01 00:49:18
  TRACK 38 AUDIO
    TITLE "0:"
    INDEX 01 00:50:33
  TRACK 39 AUDIO
    TITLE "4:cjc004_6540"
    INDEX 01 00:50:64
  TRACK 40 AUDIO
    TITLE "0:"
    INDEX 01 00:52:36
  TRACK 41 AUDIO
    TITLE "5:cjc004_6541"
    INDEX 01 00:52:57
  TRACK 42 AUDIO
    TITLE "0:"
    INDEX 01 00:57:03
  TRACK 43 AUDIO
    TITLE "3:cjc004_6542"
    INDEX 01 00:57:60
  TRACK 44 AUDIO
    TITLE "0:"
    INDEX 01 00:59:10
  TRACK 45 AUDIO
    TITLE "4:cjc004_6543"
    INDEX 01 00:59:38
  TRACK 46 AUDIO
    TITLE "0:"
    INDEX 01 01:00:45
  TRACK 47 AUDIO
    TITLE "5:cjc004_6544"
    INDEX 01 01:00:66
  TRACK 48 AUDIO
    TITLE "0:"
    INDEX 01 01:05:17
  TRACK 49 AUDIO
    TITLE "3:cjc004_6545"
    INDEX 01 01:05:71
  TRACK 50 AUDIO
    TITLE "0:"
    INDEX 01 01:07:19
  TRACK 51 AUDIO
    TITLE "4:cjc004_6546"
    INDEX 01 01:07:43
  TRACK 52 AUDIO
    TITLE "0:"
    INDEX 01 01:09:05
  TRACK 53 AUDIO
    TITLE "5:cjc004_6547"
    INDEX 01 01:09:32
  TRACK 54 AUDIO
    TITLE "0:"
    INDEX 01 01:13:42
  TRACK 55 AUDIO
    TITLE "3:cjc004_6548"
    INDEX 01 01:14:14
  TRACK 56 AUDIO
    TITLE "0:"
    INDEX 01 01:15:35
  TRACK 57 AUDIO
    TITLE "4:cjc004_6549"
    INDEX 01 01:15:62
  TRACK 58 AUDIO
    TITLE "0:"
    INDEX 01 01:16:61
  TRACK 59 AUDIO
    TITLE "5:cjc004_6550"
    INDEX 01 01:17:10
  TRACK 60 AUDIO
    TITLE "0:"
    INDEX 01 01:21:63
